<svg xmlns="http://www.w3.org/2000/svg" viewBox="0 0 512 512" role="img"><title>KnoSky mark — Midnight on Starlight</title><circle cx="256" cy="256" r="256" fill="#9CC2FF"/><g transform="translate(256 262) scale(.92) translate(-256 -256)"><path d="M 223,402 C 236,389 287,347 300,326 C 313,305 315,291 300,276 C 285,261 226,252 212,236 C 198,220 204,198 214,182 C 224,166 262,147 272,140" fill="none" stroke="#0E1F4D" stroke-width="18" stroke-linecap="round"/><circle cx="223" cy="402" r="17" fill="#0E1F4D"/><g transform="translate(232 70) scale(4)"><path d="M12 2C8.13 2 5 5.13 5 9c0 5.25 7 13 7 13s7-7.75 7-13c0-3.87-3.13-7-7-7zM12 11.5a2.5 2.5 0 1 1 0-5 2.5 2.5 0 0 1 0 5z" fill="#0E1F4D" fill-rule="evenodd"/></g><polygon points="118,336 263,268 249,244" fill="#FFF8F2"/><polygon points="394,176 263,268 249,244" fill="#0E1F4D"/><circle cx="256" cy="256" r="21" fill="#9CC2FF" stroke="#0E1F4D" stroke-width="8"/></g></svg>
